<?xml version="1.0" encoding="utf-8" ?>
<svg baseProfile="full" height="400" version="1.1" width="800" xmlns="http://www.w3.org/2000/svg" xmlns:ev="http://www.w3.org/2001/xml-events" xmlns:xlink="http://www.w3.org/1999/xlink"><defs /><polygon fill="black" fill-opacity="0.05" points="210.9555495773441,216.19977130022855 156.14015737457663,253.93010627248327 96.9851744101679,221.2767654268103 115.24077653700974,163.3655559656945 185.6783421009016,160.22780103478337" /><polygon fill="#1F77B4" fill-opacity="0.9" points="207.9555495773441,213.19977130022855 153.14015737457663,250.93010627248327 93.9851744101679,218.2767654268103 112.24077653700974,160.3655559656945 182.6783421009016,157.22780103478337" stroke="white" stroke-width="1.5" /><polygon fill="black" fill-opacity="0.05" points="289.86184199300465,144.9392986904275 239.84327328747685,159.57865691558612 208.0068537179624,123.66755454622609 238.34943304942794,86.83391448332614 288.9385979521282,99.98057536443415" /><polygon fill="#2CA02C" fill-opacity="0.75" points="286.86184199300465,141.9392986904275 236.84327328747685,156.57865691558612 205.0068537179624,120.66755454622609 235.34943304942794,83.83391448332614 285.9385979521282,96.98057536443415" stroke="white" stroke-width="1.5" /><polygon fill="black" fill-opacity="0.05" points="373.07517527228663,107.3697733175975 331.93647418967834,106.75940642390697 319.9068498540239,73.31434740489959 353.6108342253049,53.25453106909736 386.4706664587062,74.30194178449857" /><polygon fill="#48C9B0" fill-opacity="0.6" points="370.07517527228663,104.3697733175975 328.93647418967834,103.75940642390697 316.9068498540239,70.31434740489959 350.6108342253049,50.25453106909736 383.4706664587062,71.30194178449857" stroke="white" stroke-width="1.5" /><polygon fill="black" fill-opacity="0.05" points="439.470476127563,88.5259238086427 412.0332358013644,79.57357949406932 413.57135096357575,54.62694169019095 441.9591987386325,48.16141593693446 457.9657383688643,69.11213907016256" /><polygon fill="#7DCEA0" fill-opacity="0.45" points="436.470476127563,85.5259238086427 409.0332358013644,76.57357949406932 410.57135096357575,51.62694169019095 438.9591987386325,45.16141593693446 454.9657383688643,66.11213907016256" stroke="white" stroke-width="1.5" /><g style="fill:#2C3E50; font-family: 'PingFang SC', 'Microsoft YaHei', 'SimHei', sans-serif; font-weight: bold; font-size: 80px;"><text x="220" y="320">结</text><text x="315" y="320">巴</text><text x="410" y="320">分</text><text x="505" y="320">词</text></g></svg>